<svg width="393" height="101" viewBox="0 0 393 101" fill="none" xmlns="http://www.w3.org/2000/svg">
<path d="M53.6099 57.916C53.9331 57.916 57.1354 59.7799 63.2168 63.5077V63.7261C63.2168 65.7939 61.88 68.5752 59.2066 72.07L58.9422 72.2447C58.4134 72.2447 55.167 70.3808 49.2031 66.653V65.7793C50.1432 62.2845 51.6122 59.6634 53.6099 57.916Z" fill="white"/>
<path d="M83.8379 79.7152V79.9337C81.5758 82.0305 78.3882 84.3167 74.2752 86.7922C70.4559 89.2968 65.2118 90.5491 58.5428 90.5491C44.0298 90.5491 34.9223 88.0008 31.2206 82.9042C29.0466 80.4579 27.9596 77.5019 27.9596 74.0362C27.9596 68.2697 30.78 61.615 36.4207 54.0721C40.5631 49.2667 44.5145 45.7428 48.275 43.5003C50.8603 42.1315 52.197 41.3597 52.2852 41.185C47.7021 40.1365 44.2207 39.6123 41.841 39.6123H40.4749C36.2738 39.6123 32.9246 41.1704 30.4274 44.2866H30.0308C29.7664 44.2866 29.6342 44.1992 29.6342 44.0245V43.6313C29.8398 41.0685 31.1619 38.1416 33.6003 34.8506C36.8613 30.919 41.3857 28.9531 47.1733 28.9531H47.3496C50.9044 28.9531 58.44 30.4093 69.9565 33.3216C74.187 34.2827 77.9475 34.7632 81.2379 34.7632H81.7667C81.943 34.7632 82.0311 34.8361 82.0311 34.9817C80.4447 38.826 78.726 42.4081 76.8752 45.7282H73.0853C59.483 45.7282 46.9529 50.8685 35.4952 61.1491C34.8783 61.7607 34.2466 62.547 33.6003 63.5081V65.1681C33.6003 69.4492 36.215 72.9586 41.4444 75.6962C46.5857 78.2008 52.579 79.4531 59.4242 79.4531H83.4413C83.7057 79.4531 83.8379 79.5405 83.8379 79.7152Z" fill="white"/>
<path d="M103.713 51.8003C102.92 56.9842 101.158 62.2847 98.4253 67.7017H96.7066C96.7066 58.4695 94.7383 41.5343 90.8015 16.8959L96.5744 5.27563H98.2931C101.907 29.0695 103.713 44.5777 103.713 51.8003Z" fill="white"/>
<path d="M335.908 14.2746L342.166 18.381V19.1674L337.363 28.7781L336.834 28.9528L335.6 28.3412C337.157 36.6705 337.935 43.4854 337.935 48.7859C337.935 55.0183 336.349 61.3235 333.176 67.7015H318.898H317.796H317.312L317.268 67.6578C313.037 67.4831 309.159 65.3862 305.678 61.2798C305.266 60.61 304.914 59.9984 304.62 59.445C303.592 61.8332 302.446 64.5853 301.183 67.7015H168.714H166.907H152.717H151.219H144.036C142.361 72.6379 139.233 78.1423 134.561 84.1271C131.241 87.8258 129.067 89.7479 128.039 89.8936C126.188 90.3595 124.484 90.5925 122.927 90.5925C119.079 90.3304 112.248 87.3453 102.436 81.6371L103.009 79.4965C106.416 80.6614 109.839 81.3167 113.276 81.4623C124.293 81.4623 132.74 76.4677 138.616 66.4783L139.629 64.0757C134.958 60.9012 132.49 57.0132 132.226 52.4117C133.019 49.1499 134.341 45.859 136.192 42.5389L137.822 42.6263C138.851 51.0429 143.478 55.7027 151.704 56.6055H152.717H166.907H168.714H302.417C301.858 54.5086 300.492 52.7321 298.318 51.2759C292.531 48.3636 284.701 46.9074 274.83 46.9074H193.392C185.489 46.9074 181.538 45.4512 181.538 42.5389V41.6215C181.538 38.5636 184.432 33.7145 190.219 27.0744C196.242 21.4827 202.279 17.5801 208.331 15.3668C213.473 13.2699 218.57 11.6098 223.623 10.3866C228.999 9.10522 234.816 7.99853 241.074 7.06658L241.294 7.41606L237.02 16.7647C223.652 19.5896 214.618 21.9341 209.918 23.798C201.163 26.6812 194.215 30.1614 189.074 34.2387C192.07 35.5202 196.609 36.1609 202.691 36.1609H275.755C290.268 36.1609 300.096 38.6946 305.237 43.7621C306.206 45.1891 306.882 46.7181 307.264 48.349L308.498 50.5333C309.938 53.1835 312.773 55.2076 317.003 56.6055H317.312H318.898H331.369C331.369 51.2177 329.518 39.7139 325.817 22.0943C322.438 20.0847 320.749 17.318 320.749 13.7941C320.749 10.3575 322.409 6.49867 325.729 2.21753L326.963 2.91649L326.61 4.70758C326.61 7.56168 329.709 10.7507 335.908 14.2746Z" fill="white"/>
<path d="M358.738 5.27637C362.351 29.0702 364.158 44.5784 364.158 51.801C363.365 56.985 361.602 62.2854 358.87 67.7024H357.151C357.151 58.4703 355.183 41.535 351.246 16.8966L357.019 5.27637H358.738Z" fill="white"/>
<path d="M381.058 5.94118C381.058 2.66479 383.746 0 387.051 0C390.312 0 393 2.66479 393 5.94118C393 9.17387 390.312 11.8387 387.051 11.8387C383.746 11.8387 381.058 9.17387 381.058 5.94118Z" fill="white"/>
<path d="M11.9425 5.94118C11.9425 9.17387 9.29837 11.8387 5.99326 11.8387C2.68816 11.8387 0 9.17387 0 5.94118C0 2.66479 2.68816 0 5.99326 0C9.29837 0 11.9425 2.66479 11.9425 5.94118Z" fill="white"/>
<path d="M11.9425 95.0589C11.9425 98.3353 9.29837 101 5.99326 101C2.68816 101 0 98.3353 0 95.0589C0 91.8262 2.68816 89.1614 5.99326 89.1614C9.29837 89.1614 11.9425 91.8262 11.9425 95.0589Z" fill="white"/>
<path d="M393 95.0589C393 98.3353 390.312 101 387.051 101C383.746 101 381.058 98.3353 381.058 95.0589C381.058 91.8262 383.746 89.1614 387.051 89.1614C390.312 89.1614 393 91.8262 393 95.0589Z" fill="white"/>
</svg>
